REM DIRINDEX 1\2\5,1\2\6,1\2\7,1\2\8,1\3\9,1\3\10,1\3\11,1\4\12,1\4\13,1\4\14,1\4\15,1\4\16
REM DIRNAME cjc034,folder01,folder02,folder03,folder04,folder05,folder06,folder07,folder08,folder09,folder10,folder11,folder12,folder13,folder14,folder15
TITLE ""
FILE "1200_2_sec02_0561_0581.mp3" MP3
  TRACK 01 AUDIO
    TITLE "0:"
    INDEX 01 00:00:00
  TRACK 02 AUDIO
    TITLE "11:cjc034_01147"
    INDEX 01 00:00:15
  TRACK 03 AUDIO
    TITLE "0:"
    INDEX 01 00:01:36
  TRACK 04 AUDIO
    TITLE "11:cjc034_01148"
    INDEX 01 00:02:06
  TRACK 05 AUDIO
    TITLE "0:"
    INDEX 01 00:04:25
  TRACK 06 AUDIO
    TITLE "10:cjc034_01149"
    INDEX 01 00:05:32
  TRACK 07 AUDIO
    TITLE "0:"
    INDEX 01 00:08:17
  TRACK 08 AUDIO
    TITLE "9:cjc034_01150"
    INDEX 01 00:08:40
  TRACK 09 AUDIO
    TITLE "0:"
    INDEX 01 00:10:31
  TRACK 10 AUDIO
    TITLE "10:cjc034_01151"
    INDEX 01 00:11:23
  TRACK 11 AUDIO
    TITLE "0:"
    INDEX 01 00:13:10
  TRACK 12 AUDIO
    TITLE "9:cjc034_01152"
    INDEX 01 00:13:26
  TRACK 13 AUDIO
    TITLE "0:"
    INDEX 01 00:16:59
  TRACK 14 AUDIO
    TITLE "10:cjc034_01153"
    INDEX 01 00:17:55
  TRACK 15 AUDIO
    TITLE "0:"
    INDEX 01 00:19:38
  TRACK 16 AUDIO
    TITLE "9:cjc034_01154"
    INDEX 01 00:19:58
  TRACK 17 AUDIO
    TITLE "0:"
    INDEX 01 00:21:41
  TRACK 18 AUDIO
    TITLE "10:cjc034_01155"
    INDEX 01 00:22:36
  TRACK 19 AUDIO
    TITLE "0:"
    INDEX 01 00:24:29
  TRACK 20 AUDIO
    TITLE "9:cjc034_01156"
    INDEX 01 00:24:45
  TRACK 21 AUDIO
    TITLE "0:"
    INDEX 01 00:26:20
  TRACK 22 AUDIO
    TITLE "10:cjc034_01157"
    INDEX 01 00:27:14
  TRACK 23 AUDIO
    TITLE "0:"
    INDEX 01 00:28:53
  TRACK 24 AUDIO
    TITLE "9:cjc034_01158"
    INDEX 01 00:28:74
  TRACK 25 AUDIO
    TITLE "0:"
    INDEX 01 00:30:42
  TRACK 26 AUDIO
    TITLE "10:cjc034_01159"
    INDEX 01 00:31:45
  TRACK 27 AUDIO
    TITLE "0:"
    INDEX 01 00:33:17
  TRACK 28 AUDIO
    TITLE "9:cjc034_01160"
    INDEX 01 00:33:40
  TRACK 29 AUDIO
    TITLE "0:"
    INDEX 01 00:35:00
  TRACK 30 AUDIO
    TITLE "10:cjc034_01161"
    INDEX 01 00:36:01
  TRACK 31 AUDIO
    TITLE "0:"
    INDEX 01 00:37:50
  TRACK 32 AUDIO
    TITLE "9:cjc034_01162"
    INDEX 01 00:37:71
  TRACK 33 AUDIO
    TITLE "0:"
    INDEX 01 00:39:43
  TRACK 34 AUDIO
    TITLE "10:cjc034_01163"
    INDEX 01 00:40:46
  TRACK 35 AUDIO
    TITLE "0:"
    INDEX 01 00:42:55
  TRACK 36 AUDIO
    TITLE "9:cjc034_01164"
    INDEX 01 00:43:01
  TRACK 37 AUDIO
    TITLE "0:"
    INDEX 01 00:44:63
  TRACK 38 AUDIO
    TITLE "10:cjc034_01165"
    INDEX 01 00:45:57
  TRACK 39 AUDIO
    TITLE "0:"
    INDEX 01 00:49:33
  TRACK 40 AUDIO
    TITLE "9:cjc034_01166"
    INDEX 01 00:49:61
  TRACK 41 AUDIO
    TITLE "0:"
    INDEX 01 00:51:67
  TRACK 42 AUDIO
    TITLE "10:cjc034_01167"
    INDEX 01 00:52:65
  TRACK 43 AUDIO
    TITLE "0:"
    INDEX 01 00:54:27
  TRACK 44 AUDIO
    TITLE "9:cjc034_01168"
    INDEX 01 00:54:48
  TRACK 45 AUDIO
    TITLE "0:"
    INDEX 01 00:57:66
  TRACK 46 AUDIO
    TITLE "10:cjc034_01169"
    INDEX 01 00:58:62
  TRACK 47 AUDIO
    TITLE "0:"
    INDEX 01 01:02:01
  TRACK 48 AUDIO
    TITLE "9:cjc034_01170"
    INDEX 01 01:02:20
  TRACK 49 AUDIO
    TITLE "0:"
    INDEX 01 01:03:69
  TRACK 50 AUDIO
    TITLE "10:cjc034_01171"
    INDEX 01 01:04:68
  TRACK 51 AUDIO
    TITLE "0:"
    INDEX 01 01:06:24
  TRACK 52 AUDIO
    TITLE "9:cjc034_01172"
    INDEX 01 01:06:43
  TRACK 53 AUDIO
    TITLE "0:"
    INDEX 01 01:08:17
  TRACK 54 AUDIO
    TITLE "10:cjc034_01173"
    INDEX 01 01:09:18
  TRACK 55 AUDIO
    TITLE "0:"
    INDEX 01 01:10:67
  TRACK 56 AUDIO
    TITLE "9:cjc034_01174"
    INDEX 01 01:11:11
  TRACK 57 AUDIO
    TITLE "0:"
    INDEX 01 01:14:55
  TRACK 58 AUDIO
    TITLE "10:cjc034_01175"
    INDEX 01 01:15:56
  TRACK 59 AUDIO
    TITLE "0:"
    INDEX 01 01:17:02
  TRACK 60 AUDIO
    TITLE "9:cjc034_01176"
    INDEX 01 01:17:20
  TRACK 61 AUDIO
    TITLE "0:"
    INDEX 01 01:18:72
  TRACK 62 AUDIO
    TITLE "10:cjc034_01177"
    INDEX 01 01:19:70
  TRACK 63 AUDIO
    TITLE "0:"
    INDEX 01 01:21:45
  TRACK 64 AUDIO
    TITLE "9:cjc034_01178"
    INDEX 01 01:21:69
  TRACK 65 AUDIO
    TITLE "0:"
    INDEX 01 01:23:26
  TRACK 66 AUDIO
    TITLE "10:cjc034_01179"
    INDEX 01 01:24:24
  TRACK 67 AUDIO
    TITLE "0:"
    INDEX 01 01:26:13
  TRACK 68 AUDIO
    TITLE "9:cjc034_01180"
    INDEX 01 01:26:32
  TRACK 69 AUDIO
    TITLE "0:"
    INDEX 01 01:28:04
  TRACK 70 AUDIO
    TITLE "10:cjc034_01181"
    INDEX 01 01:29:01
  TRACK 71 AUDIO
    TITLE "0:"
    INDEX 01 01:30:48
  TRACK 72 AUDIO
    TITLE "9:cjc034_01182"
    INDEX 01 01:30:69
  TRACK 73 AUDIO
    TITLE "0:"
    INDEX 01 01:32:51
  TRACK 74 AUDIO
    TITLE "10:cjc034_01183"
    INDEX 01 01:33:48
  TRACK 75 AUDIO
    TITLE "0:"
    INDEX 01 01:37:26
  TRACK 76 AUDIO
    TITLE "9:cjc034_01184"
    INDEX 01 01:37:50
  TRACK 77 AUDIO
    TITLE "0:"
    INDEX 01 01:39:37
  TRACK 78 AUDIO
    TITLE "11:cjc034_01185"
    INDEX 01 01:41:09
  TRACK 79 AUDIO
    TITLE "0:"
    INDEX 01 01:44:38
  TRACK 80 AUDIO
    TITLE "10:cjc034_01186"
    INDEX 01 01:45:40
  TRACK 81 AUDIO
    TITLE "0:"
    INDEX 01 01:47:74
  TRACK 82 AUDIO
    TITLE "9:cjc034_01187"
    INDEX 01 01:48:20
  TRACK 83 AUDIO
    TITLE "0:"
    INDEX 01 01:49:59
  TRACK 84 AUDIO
    TITLE "10:cjc034_01188"
    INDEX 01 01:50:58
  TRACK 85 AUDIO
    TITLE "0:"
    INDEX 01 01:52:02
  TRACK 86 AUDIO
    TITLE "9:cjc034_01189"
    INDEX 01 01:52:22
  TRACK 87 AUDIO
    TITLE "0:"
    INDEX 01 01:54:07
  TRACK 88 AUDIO
    TITLE "10:cjc034_01190"
    INDEX 01 01:55:03
  TRACK 89 AUDIO
    TITLE "0:"
    INDEX 01 01:58:44
  TRACK 90 AUDIO
    TITLE "9:cjc034_01191"
    INDEX 01 01:58:64
  TRACK 91 AUDIO
    TITLE "0:"
    INDEX 01 02:00:35
